<svg width="39" height="32" viewBox="0 0 39 32" fill="none" xmlns="http://www.w3.org/2000/svg">
<g clip-path="url(#clip0_869_324)">
<path d="M34.7589 7.81061C34.7824 8.151 34.7824 8.49139 34.7824 8.83492C34.7824 19.3024 26.8138 31.3745 12.2428 31.3745V31.3683C7.93853 31.3745 3.72363 30.1416 0.100098 27.8169C0.72598 27.8922 1.355 27.9298 1.98559 27.9314C5.55265 27.9345 9.01774 26.7377 11.824 24.5337C8.43421 24.4694 5.46167 22.2592 4.42323 19.0326C5.61068 19.2616 6.83421 19.2145 7.9997 18.8961C4.30402 18.1494 1.6452 14.9024 1.6452 11.1314C1.6452 11.0969 1.6452 11.0639 1.6452 11.031C2.74637 11.6443 3.97931 11.9847 5.24049 12.0224C1.75971 9.6961 0.686764 5.06551 2.78872 1.44512C6.81068 6.39414 12.7448 9.40277 19.115 9.7212C18.4766 6.96982 19.3487 4.08669 21.4068 2.15257C24.5973 -0.846647 29.6154 -0.692922 32.6146 2.4961C34.3887 2.14629 36.0891 1.49531 37.6452 0.572961C37.0538 2.40669 35.8162 3.96433 34.1628 4.95414C35.733 4.76904 37.2672 4.34865 38.7119 3.70708C37.6483 5.3008 36.3087 6.68904 34.7589 7.81061Z" fill="#1D9BF0"/>
</g>
<defs>
<clipPath id="clip0_869_324">
<rect width="38.902" height="32" fill="white" transform="translate(0.100098)"/>
</clipPath>
</defs>
</svg>
